<svg xmlns="http://www.w3.org/2000/svg" width="47.531" height="42.953" viewBox="0 0 47.531 42.953">
  <g id="_14822231841583761749" data-name="14822231841583761749" transform="translate(-1.053 -2.695)">
    <path id="Path_453" data-name="Path 453" d="M31.674,11.6H20.938a1.411,1.411,0,0,0-1.431,1.431,3.023,3.023,0,0,0,.537,1.789c.179.179.179.358.358.537H16.464A2.335,2.335,0,0,0,14.138,17.5a2.27,2.27,0,0,0,.179,1.074h0a2.509,2.509,0,0,0-2.505,2.147,2.535,2.535,0,0,0,1.61,2.684h0a2.285,2.285,0,0,0,.358,2.147,2.473,2.473,0,0,0,1.968,1.074h.716a2.462,2.462,0,0,0,.179,1.968,2.551,2.551,0,0,0,2.147,1.074H30.958a3.972,3.972,0,0,0,1.61-.179,9.068,9.068,0,0,0,7.515-9.842C39.905,15.358,35.969,11.779,31.674,11.6Zm-13.6,15.21a.93.93,0,0,1,.716-.358H23.98c.358,0,.537,0,.716-.179a.657.657,0,0,0,.179-.537.845.845,0,0,0-.895-.895H15.749c-.358,0-.716,0-.895-.537a1.076,1.076,0,0,1,.179-.716.93.93,0,0,1,.716-.358H26.843a.77.77,0,0,0,.716-.716.913.913,0,0,0-.716-.895H13.78a.716.716,0,1,1,0-1.431h12.7a.895.895,0,1,0,0-1.789H16.464a1.367,1.367,0,0,1-.895-.358c-.179-.179-.179-.358,0-.716a.827.827,0,0,1,.895-.537H29.706a.93.93,0,0,0,.716-.358.657.657,0,0,0,.179-.537c0-.537-.358-.895-.895-.716H23.443a2.219,2.219,0,0,1-2.326-2.147v-.179h10.02a7.33,7.33,0,0,1,7.336,7.157A7.553,7.553,0,0,1,32.032,27.7H18.791c-.358,0-.716,0-.895-.537C17.9,27.346,17.9,26.989,18.075,26.81Z" transform="translate(8.471 7.029)" fill="#919191"/>
    <path id="Path_454" data-name="Path 454" d="M3.5,17.674V30.2a.949.949,0,0,0,1.074,1.074H12.8A.949.949,0,0,0,13.878,30.2V17.674A.949.949,0,0,0,12.8,16.6H4.574A.949.949,0,0,0,3.5,17.674Zm8.768,6.442v5.9H5.11V18.389h7.157v5.726Z" transform="translate(1.931 10.976)" fill="#919191"/>
    <path id="Path_455" data-name="Path 455" d="M14.736,18.808c-.179,0-.179-.179-.179-.358V15.587a.819.819,0,0,0-.716-.895h0V11.472A.949.949,0,0,0,12.768,10.4h0V8.072h.179a12.877,12.877,0,0,1,5.726,1.968,2.586,2.586,0,0,0,1.253.358l-.179.179-.358.716A23.313,23.313,0,0,0,17.6,13.977a3.422,3.422,0,0,0,0,3.221,3.036,3.036,0,0,0,2.863,1.61,3.224,3.224,0,0,0,2.863-1.61,3.422,3.422,0,0,0,0-3.221c-.537-.895-1.074-1.61-1.61-2.505l-.358-.537c-.358-.358-.537-.358-.716-.537a2.47,2.47,0,0,0,.716-.537,1.928,1.928,0,0,0,.358-1.431,2.071,2.071,0,0,0-.895-1.253,14.486,14.486,0,0,0-8.947-2.505,26.7,26.7,0,0,0-3.758.358H5.968a.248.248,0,0,1-.358,0L4.537,3.419a1.965,1.965,0,0,0-2.684-.358,1.812,1.812,0,0,0-.358,2.684c.537.716,1.074,1.431,1.431,1.968l.716.895a.654.654,0,0,0,.895.358c1.074-.179,2.147-.179,3.221-.358h.716v1.968h0A.949.949,0,0,0,7.4,11.651v3.042h0c-.179,0-.537,0-.537.179a1.613,1.613,0,0,0-.179.895V18.45c0,.179,0,.179-.179.358a9.1,9.1,0,0,0-5.01,7.873V42.607a3.016,3.016,0,0,0,3.042,3.042H17.062A2.912,2.912,0,0,0,20.1,42.607V27.039C19.746,23.281,18.136,20.418,14.736,18.808ZM8.294,17.556V16.482h4.473v2.684a.981.981,0,0,0,.716,1.074,7.623,7.623,0,0,1,4.652,7.336v15.21c0,1.074-.537,1.431-1.431,1.431H4.537c-1.074,0-1.431-.537-1.431-1.431V27.218A7.417,7.417,0,0,1,7.579,20.24a1.028,1.028,0,0,0,.716-1.074ZM11.157,9.5v1.074h-.895V8.609h1.074v.716Zm1.074,5.189H9.189V12.187h3.042ZM19.746,8.43l.179.179v.179q0,.268-.537,0A13.06,13.06,0,0,0,12.052,6.64a6.087,6.087,0,0,0-1.789.179C9.189,7,8.115,7,6.863,7.177a8.024,8.024,0,0,0-1.968.179c-.179,0-.179,0-.358-.179a9.834,9.834,0,0,0-1.253-1.61l-.537-.716V4.493l.179-.179c.179,0,.179,0,.358.179,0,.179.179.358.358.537A3.743,3.743,0,0,1,4.358,6.1a1.627,1.627,0,0,0,1.431.716c.537,0,1.074-.179,1.61-.179a37.67,37.67,0,0,1,4.473-.358A12.534,12.534,0,0,1,19.746,8.43Zm-.716,6.263,1.074-1.61.179-.358c.179.179.358.179.358.358l1.074,1.61a1.633,1.633,0,0,1-.358,1.968,1.4,1.4,0,0,1-1.968,0A1.633,1.633,0,0,1,19.031,14.693Z" transform="translate(0 0)" fill="#919191"/>
  </g>
</svg>
