<svg xmlns="http://www.w3.org/2000/svg" width="58.055" height="58.055" viewBox="0 0 58.055 58.055">
  <g id="_284621541552979566" data-name="284621541552979566" transform="translate(0.666 29.068) rotate(-45)">
    <g id="Group_216" data-name="Group 216" transform="translate(28.393 16.888)">
      <g id="Group_215" data-name="Group 215">
        <path id="Path_438" data-name="Path 438" d="M363.223,215.177a.785.785,0,1,0,0,1.109A.785.785,0,0,0,363.223,215.177Z" transform="translate(-361.883 -214.947)" fill="#919191" stroke="#919191" stroke-width="0.8"/>
      </g>
    </g>
    <g id="Group_218" data-name="Group 218" transform="translate(-0.001 0.025)">
      <g id="Group_217" data-name="Group 217" transform="translate(0 0)">
        <path id="Path_439" data-name="Path 439" d="M39.477,5.153,35.039.715a2.352,2.352,0,0,0-3.328,0L30.287,2.138a2.347,2.347,0,0,0-.631,2.186L23.221,5.46a7.027,7.027,0,0,0-3.765,1.961L18.081,8.8a3.92,3.92,0,0,0-1.108,3.329,3.924,3.924,0,0,0-4.44,4.439A3.923,3.923,0,0,0,8.1,21a3.92,3.92,0,0,0-3.329,1.108l-3.161,3.16a5.5,5.5,0,0,0,0,7.768l5.548,5.548a5.5,5.5,0,0,0,7.768,0l3.16-3.161A3.919,3.919,0,0,0,19.189,32.1a3.92,3.92,0,0,0,4.438-4.438,3.921,3.921,0,0,0,4.439-4.438,3.908,3.908,0,0,0,3.331-1.11l1.374-1.375a7.027,7.027,0,0,0,1.961-3.766l1.135-6.434a2.347,2.347,0,0,0,2.186-.631l1.423-1.423A2.352,2.352,0,0,0,39.477,5.153ZM16.972,34.316l-3.16,3.161a3.928,3.928,0,0,1-5.548,0L2.715,31.929a3.929,3.929,0,0,1,0-5.549l3.161-3.16a2.356,2.356,0,0,1,3.329,0l7.767,7.767A2.356,2.356,0,0,1,16.972,34.316Zm4.438-4.438a2.354,2.354,0,0,1-3.329,0l-7.767-7.767a2.354,2.354,0,0,1,3.328-3.329h0l7.766,7.766h0A2.357,2.357,0,0,1,21.41,29.878Zm4.438-4.438a2.352,2.352,0,0,1-3.329,0l-7.767-7.767a2.354,2.354,0,0,1,3.328-3.329l7.767,7.767A2.356,2.356,0,0,1,25.848,25.439ZM33.187,16.7a5.466,5.466,0,0,1-1.526,2.929L30.287,21a2.356,2.356,0,0,1-3.329,0l-7.767-7.767a2.357,2.357,0,0,1,0-3.329L20.566,8.53A5.466,5.466,0,0,1,23.495,7l7.081-1.249,3.861,3.861Zm5.18-9.325L36.944,8.8a.784.784,0,0,1-1.109,0L31.4,4.357a.784.784,0,0,1,0-1.109L32.82,1.824a.784.784,0,0,1,1.109,0l4.438,4.439A.784.784,0,0,1,38.368,7.372Z" transform="translate(0.001 -0.025)" fill="#919191" stroke="#919191" stroke-width="0.8"/>
      </g>
    </g>
    <g id="Group_222" data-name="Group 222" transform="translate(22.386 10.88)">
      <g id="Group_221" data-name="Group 221">
        <path id="Path_441" data-name="Path 441" d="M290.447,142.4l-3.788-3.788a.785.785,0,0,0-1.11,1.11l3.788,3.788a.785.785,0,0,0,1.11-1.11Z" transform="translate(-285.319 -138.379)" fill="#919191" stroke="#919191" stroke-width="0.8"/>
      </g>
    </g>
  </g>
</svg>
