<svg xmlns="http://www.w3.org/2000/svg" width="48.613" height="42.977" viewBox="0 0 48.613 42.977">
  <g id="_19140764191580120688" data-name="19140764191580120688" transform="translate(0 -0.375)">
    <g id="Group_224" data-name="Group 224" transform="translate(0 2)">
      <path id="Path_451" data-name="Path 451" d="M47.524,9.482a1.09,1.09,0,0,0,0-2.179H38.351V3.218a4.848,4.848,0,0,0-4.843-4.843H10.792A4.031,4.031,0,0,0,6.766,2.4V7.3H1.09a1.09,1.09,0,1,0,0,2.179H6.766v1.453H1.09a1.09,1.09,0,0,0,0,2.179H6.766v21.4a.994.994,0,0,0,0,.335v5.411a1.09,1.09,0,0,0,1.09,1.09H33.494a1.09,1.09,0,0,0,1.09-1.09V37.273a.994.994,0,0,0,0-.335V36.27h2.678a1.09,1.09,0,0,0,1.09-1.09V13.267a1.072,1.072,0,0,0-.012-.152h9.185a1.09,1.09,0,0,0,0-2.179H34.583V9.483ZM36.172,3.218V7.3H34.583V2.4A4,4,0,0,0,34.176.639,2.669,2.669,0,0,1,36.172,3.218ZM8.945,32.262H32.4v3.445a5.347,5.347,0,0,1-.715-.605,4.4,4.4,0,0,0-6.629,0,2.268,2.268,0,0,1-3.638,0,4.4,4.4,0,0,0-6.628,0,2.268,2.268,0,0,1-3.638,0A4.945,4.945,0,0,0,8.945,33.73ZM10.792.554H30.557A1.849,1.849,0,0,1,32.4,2.4V30.083H8.945V2.4A1.849,1.849,0,0,1,10.792.554ZM8.945,39.172v-3.09a5.4,5.4,0,0,1,.715.605,4.4,4.4,0,0,0,6.628,0,2.267,2.267,0,0,1,3.638,0,4.4,4.4,0,0,0,6.629,0,2.267,2.267,0,0,1,3.638,0A4.945,4.945,0,0,0,32.4,38.06v1.114ZM36.183,13.114a1.081,1.081,0,0,0-.012.152V34.091H34.583V31.34a.992.992,0,0,0,0-.335V13.114Zm0,0" fill="#919191"/>
      <path id="Path_452" data-name="Path 452" d="M258.914,69.786h2.119a2.738,2.738,0,0,0,2.731-2.738V46.093a1.09,1.09,0,0,0-2.179,0V67.048a.557.557,0,0,1-.552.559h-2.119a1.09,1.09,0,0,0,0,2.179Zm0,0" transform="translate(-232.819 -42.107)" fill="#919191"/>
    </g>
  </g>
</svg>
