<svg xmlns="http://www.w3.org/2000/svg" width="32.334" height="42.953" viewBox="0 0 32.334 42.953">
  <g id="_13068893631580471349" data-name="13068893631580471349" transform="translate(-18.581 -7.2)">
    <path id="Path_442" data-name="Path 442" d="M82.338,35.616V48.767c0,.793-.233,1.446-1.119,1.4-.886,0-1.026-.7-1.026-1.446,0-4.85-.187-9.7.047-14.5A92.363,92.363,0,0,0,77.721,9.174c-.187-.839-.42-1.726.7-1.912,1.213-.233,1.306.793,1.446,1.632.746,4.057,1.632,8.161,2.285,12.218.466,3.031.093,6.156.187,9.187Z" transform="translate(-31.476 -0.015)" fill="#919191"/>
    <path id="Path_443" data-name="Path 443" d="M69.757,23.232c-.979.093-1.446-.187-1.586-.793-.14-.793.326-1.166,1.026-1.306l2.658-.56a1.022,1.022,0,0,1,1.306.746,1.045,1.045,0,0,1-.886,1.4C71.343,22.953,70.363,23.139,69.757,23.232Z" transform="translate(-26.451 -7.125)" fill="#919191"/>
    <path id="Path_444" data-name="Path 444" d="M68.129,17.169a1.057,1.057,0,0,1-1.166-.886.985.985,0,0,1,.839-1.259c.933-.233,1.912-.373,2.845-.56a1.079,1.079,0,0,1,1.4.933,1.066,1.066,0,0,1-.979,1.213C70.135,16.8,69.2,16.982,68.129,17.169Z" transform="translate(-25.802 -3.859)" fill="#919191"/>
    <path id="Path_445" data-name="Path 445" d="M67.448,10.891c-1.026.093-1.539-.14-1.679-.793a1.042,1.042,0,0,1,.886-1.259c.979-.233,2.005-.42,2.985-.56a.966.966,0,0,1,1.166.793,1.037,1.037,0,0,1-.746,1.352C69.08,10.658,68.054,10.8,67.448,10.891Z" transform="translate(-25.167 -0.567)" fill="#919191"/>
    <path id="Path_446" data-name="Path 446" d="M72.99,26.878c.7-.093,1.306.14,1.4.886s-.373,1.119-1.073,1.259c-.839.14-1.679.28-2.518.466-.7.14-1.306-.047-1.446-.793-.187-.746.28-1.166.933-1.306C71.171,27.158,72.1,27.064,72.99,26.878Z" transform="translate(-27.072 -10.491)" fill="#919191"/>
    <path id="Path_447" data-name="Path 447" d="M42.52,14.568c-.14-.933-.233-1.912-.373-2.891-.793-5.13.466-4.384-5.13-4.477-1.119,0-1.679.326-1.772,1.492q-.14,1.679-.42,3.358c-.7,5.037-.606,4.244,3.638,4.337.793,0,1.586-.047,2.378,0C42.24,16.527,42.753,15.874,42.52,14.568ZM38.649,14.2c-1.539.373-2.1-.14-1.679-1.632a7.366,7.366,0,0,0,.233-2.005c.047-.979.513-1.166,1.4-1.166.933,0,1.166.42,1.213,1.213a13.844,13.844,0,0,0,.28,2.005C40.328,13.822,40.188,14.708,38.649,14.2Z" transform="translate(-8.494)" fill="#919191"/>
    <g id="Group_223" data-name="Group 223" transform="translate(18.581 16.813)">
      <path id="Path_448" data-name="Path 448" d="M35.262,44.235c.933,0,1.026-.7,1.073-1.446.093-.793-.187-1.446-.979-1.492-.839-.047-1.119.56-1.166,1.352C34.143,43.489,34.236,44.188,35.262,44.235Z" transform="translate(-26.905 -35.007)" fill="#919191"/>
      <path id="Path_449" data-name="Path 449" d="M33.233,64.949c.933.093,1.213-.606,1.259-1.446.187-4.2.42-8.394.653-12.591.047-.793.093-1.726-1.026-1.819C32.953,49,33,50.026,32.953,50.772c-.187,3.218-.326,6.482-.513,9.7h0c-.047.979-.093,1.912-.14,2.891C32.3,64.11,32.347,64.856,33.233,64.949Z" transform="translate(-25.902 -39.166)" fill="#919191"/>
      <path id="Path_450" data-name="Path 450" d="M41.488,56.394v-.326c-.047-.606-.326-1.119-.886-1.119-1.259,0-1.073-.886-1.119-1.632-.373-7.182-.746-14.317-1.073-21.5A2.274,2.274,0,0,0,37.1,29.672a14.421,14.421,0,0,0-14.084-.047,2.388,2.388,0,0,0-1.352,2.332c-.326,7.135-.7,14.224-1.026,21.312-.047.839.047,1.679-1.259,1.726-.653.047-.793.7-.793,1.352,0,.933.047,1.819,0,2.751-.093,1.446.56,1.912,1.912,1.865,3.171-.047,6.389,0,9.56,0h7.182C42,60.871,41.488,61.617,41.488,56.394ZM33.42,30.6a17.847,17.847,0,0,1-6.855.047A8.953,8.953,0,0,1,33.42,30.6ZM22.741,53.643c.233-3.311.373-6.576.513-9.887h0c.187-3.311.373-6.576.466-9.887.047-1.026.187-1.4,1.352-1.119a21.908,21.908,0,0,0,9.84-.047c1.073-.233,1.4.047,1.446,1.119.28,6.576.653,13.2,1.026,19.773.047.933-.093,1.306-1.166,1.306q-6.156-.07-12.312,0C22.974,54.9,22.694,54.622,22.741,53.643Zm16.416,4.943h0c-.373.56-.933.326-1.4.326H22.228c-.653,0-1.539.326-1.586-.933-.047-1.306.839-1.073,1.632-1.073H37.8c.466,0,1.026-.233,1.4.326A12.66,12.66,0,0,0,39.156,58.586Z" transform="translate(-18.581 -27.812)" fill="#919191"/>
    </g>
  </g>
</svg>
