<svg xmlns="http://www.w3.org/2000/svg" width="62.238" height="76.123" viewBox="0 0 62.238 76.123">
  <g id="Group_229" data-name="Group 229" transform="translate(198.718 -96.336)">
    <g id="Group_225" data-name="Group 225" transform="translate(-182.325 96.336)">
      <path id="Path_456" data-name="Path 456" d="M-140.52,99.542V97.721a78.193,78.193,0,0,0-29.3,0v1.821A78.193,78.193,0,0,1-140.52,99.542Z" transform="translate(169.824 -96.336)" fill="#2f2f2f"/>
    </g>
    <g id="Group_226" data-name="Group 226" transform="translate(-182.325 99.48)">
      <path id="Path_457" data-name="Path 457" d="M-140.52,110.361v-7.1a78.192,78.192,0,0,0-29.3,0v7.1A78.192,78.192,0,0,1-140.52,110.361Z" transform="translate(169.824 -101.878)" fill="#2f2f2f"/>
    </g>
    <g id="Group_228" data-name="Group 228" transform="translate(-198.718 107.901)">
      <g id="Group_227" data-name="Group 227">
        <path id="Path_458" data-name="Path 458" d="M-157.1,197.22a1.988,1.988,0,0,0,1.984-2,1.986,1.986,0,0,0-1.984-1.983,1.989,1.989,0,0,0-2,1.983A1.991,1.991,0,0,0-157.1,197.22Zm.61,7.653a2.105,2.105,0,0,0,2.111-2.111,2.105,2.105,0,0,0-2.111-2.111,2.105,2.105,0,0,0-2.111,2.111A2.105,2.105,0,0,0-156.488,204.874Zm-22.7,0a2.1,2.1,0,0,0,2.11-2.111,2.1,2.1,0,0,0-2.11-2.111,2.1,2.1,0,0,0-2.1,2.111A2.1,2.1,0,0,0-179.192,204.874Zm-1.374-9.649a1.992,1.992,0,0,0,2,2,2,2,0,0,0,2-2,2,2,0,0,0-2-1.983A1.99,1.99,0,0,0-180.565,195.225Zm27.051,12h-45.2l2.022-18a5.372,5.372,0,0,1,4.678-4.74l12.128-2.823v-4.97l1.347.864.635.407,2.035,1.3,1.562,1,.928.6,1.488.953,2.326,1.5v3.75l1.894,1.042,2.4-1.309v-3.482l5.656-3.636,1.016-.649,2.035-1.3,1.067-.686.559-.356v4.946c.051.05.114.1.165.152l11.594,2.7a5.385,5.385,0,0,1,4.678,4.74l2.021,18Z" transform="translate(198.718 -142.667)" fill="#2f2f2f"/>
        <path id="Path_459" data-name="Path 459" d="M-154.77,183.585l-.928-.6Z" transform="translate(180.105 -145.391)" fill="#2f2f2f"/>
        <path id="Path_460" data-name="Path 460" d="M-173.241,130.2c0,10.679,7.208,23.721,15.609,23.721s15.6-13.017,15.611-23.683a26.82,26.82,0,0,1-12.127-10.4l-.026.026c-.6.546-1.233,1.067-1.894,1.564-.09.075-.178.139-.267.2-.635.483-1.3.928-1.983,1.372-.113.077-.242.153-.356.229-.687.42-1.373.827-2.084,1.208a3.712,3.712,0,0,1-.369.2c-.724.382-1.45.763-2.187,1.106a2.631,2.631,0,0,1-.266.127c-.763.356-1.526.687-2.276,1-.026.013-.064.026-.09.039-.776.318-1.539.622-2.3.9l-.3.113c-.724.268-1.436.523-2.149.75-.114.039-.241.09-.369.128-.686.228-1.372.431-2.021.635-.051.012-.09.026-.14.038C-173.228,129.732-173.241,129.96-173.241,130.2Zm5.567,20.771a32.817,32.817,0,0,1-7.791-20.771c0-.026.011-.037.011-.063l-.05.013.1-1.577.051-.789.039-.013a18.791,18.791,0,0,1,3.038-8.77v-.891a77.8,77.8,0,0,1,29.3,0v.8a19.386,19.386,0,0,1,3.114,9.749l.013.013.026.713c0,.013.012.024.012.037l.039,1.64-.039-.026a33.216,33.216,0,0,1-7.017,19.042l.306,1.7-2.035,1.3-.165-.966a13.105,13.105,0,0,1-8.911,4.03,12.609,12.609,0,0,1-8.11-3.317l-.088.482-2.035-1.3Z" transform="translate(188.674 -116.721)" fill="#2f2f2f"/>
      </g>
    </g>
  </g>
</svg>
